<?xml version="1.0" standalone="no"?>
<!DOCTYPE svg PUBLIC "-//W3C//DTD SVG 20010904//EN"
 "http://www.w3.org/TR/2001/REC-SVG-20010904/DTD/svg10.dtd">
<svg version="1.0" xmlns="http://www.w3.org/2000/svg"
 width="700.000000pt" height="700.000000pt" viewBox="0 0 700.000000 700.000000"
 preserveAspectRatio="xMidYMid meet">
<metadata>
Created by potrace 1.14, written by Peter Selinger 2001-2017
</metadata>
<g transform="translate(0.000000,700.000000) scale(0.100000,-0.100000)"
fill="#000000" stroke="none">
<path d="M3278 6995 c-1 -1 -42 -5 -89 -9 -47 -4 -95 -8 -105 -10 -10 -2 -48
-7 -84 -12 -36 -4 -67 -8 -70 -9 -3 -1 -25 -5 -50 -9 -25 -4 -101 -21 -170
-38 -69 -16 -135 -31 -147 -34 -40 -8 -263 -84 -366 -125 -103 -41 -345 -158
-429 -207 -761 -441 -1316 -1119 -1592 -1944 -31 -94 -79 -267 -91 -329 -3
-13 -12 -58 -20 -99 -8 -41 -17 -89 -19 -105 -3 -17 -7 -46 -11 -66 -6 -40
-10 -74 -22 -199 -15 -162 -8 -591 12 -711 2 -13 6 -46 9 -74 37 -321 160
-722 326 -1060 59 -119 170 -316 197 -350 4 -6 29 -42 54 -80 220 -335 582
-693 939 -929 177 -117 208 -135 360 -213 344 -176 730 -298 1099 -349 25 -3
57 -8 71 -10 163 -25 682 -25 842 1 13 2 46 7 73 10 71 10 87 13 115 18 14 3
43 8 65 12 115 21 314 74 455 122 558 189 1087 540 1480 982 36 41 70 79 76
85 29 30 185 242 240 326 120 184 241 412 315 597 66 163 147 422 175 558 16
75 54 300 60 350 4 33 9 76 11 95 8 71 10 517 3 595 -17 172 -22 220 -25 225
-2 3 -6 30 -10 60 -3 30 -10 71 -15 90 -5 19 -12 51 -15 70 -3 19 -19 87 -35
150 -161 644 -526 1250 -1031 1715 -492 452 -1151 771 -1799 870 -25 4 -54 9
-65 11 -10 2 -49 6 -85 10 -36 3 -78 8 -95 11 -33 5 -531 13 -537 8z m420
-439 c134 -8 304 -31 417 -56 22 -5 54 -11 71 -14 49 -9 260 -72 349 -104 896
-326 1574 -1026 1877 -1937 16 -49 31 -97 33 -105 2 -8 12 -49 24 -90 38 -140
74 -364 86 -538 11 -152 4 -489 -10 -542 -2 -8 -7 -40 -10 -70 -6 -54 -10 -81
-20 -130 -2 -13 -7 -41 -10 -62 -9 -59 -63 -264 -96 -363 -107 -323 -294 -676
-486 -915 -109 -136 -153 -186 -246 -281 -64 -65 -222 -207 -272 -244 -22 -17
-49 -38 -60 -48 -79 -73 -418 -274 -585 -347 -52 -23 -108 -48 -125 -55 -81
-35 -359 -122 -445 -139 -14 -3 -61 -12 -105 -21 -88 -18 -103 -20 -220 -35
-179 -22 -431 -28 -580 -15 -223 20 -377 45 -555 92 -614 159 -1166 509 -1575
998 -104 125 -112 135 -201 266 -96 141 -171 280 -269 494 -62 136 -149 413
-184 585 -6 30 -14 66 -16 80 -3 14 -8 48 -11 75 -3 28 -7 52 -9 55 -2 3 -6
41 -10 85 -4 44 -9 96 -11 115 -12 116 -4 408 17 575 17 135 20 157 40 255
126 619 461 1206 930 1635 428 391 950 652 1509 756 73 13 72 13 155 23 33 4
71 10 85 12 14 2 79 7 145 10 66 4 121 7 122 8 3 2 155 -3 251 -8z"/>
<path d="M3617 4662 c-3 -4 -8 -23 -13 -42 -10 -47 -10 -45 -29 -125 -9 -38
-19 -78 -21 -87 -2 -10 -6 -26 -8 -35 -11 -46 -48 -200 -51 -213 -8 -34 -117
-486 -120 -500 -8 -29 -24 -95 -29 -120 -3 -14 -12 -54 -21 -90 -9 -36 -18
-72 -20 -80 -13 -58 -59 -252 -68 -285 -6 -22 -12 -49 -14 -60 -2 -11 -8 -38
-14 -60 -6 -22 -13 -47 -14 -55 -2 -8 -33 -138 -69 -289 -36 -150 -66 -277
-66 -282 0 -6 67 -8 158 -7 l157 3 52 210 c29 116 54 219 57 230 2 11 20 88
41 170 20 83 50 206 66 275 17 69 45 188 64 265 19 77 47 196 64 265 16 69 49
202 71 295 23 94 43 177 45 185 16 68 87 363 95 391 5 20 10 39 10 42 0 9
-318 8 -323 -1z"/>
<path d="M2845 4315 c-27 -13 -198 -88 -380 -166 -181 -77 -354 -152 -383
-165 -29 -13 -80 -36 -115 -50 -34 -14 -80 -34 -102 -44 -22 -10 -141 -62
-265 -115 -123 -53 -227 -100 -230 -105 -6 -10 -6 -368 1 -373 2 -1 33 -15 69
-29 60 -25 447 -192 515 -223 17 -8 188 -82 380 -165 193 -83 364 -157 381
-165 103 -47 194 -83 197 -77 5 10 1 421 -4 426 -2 2 -62 27 -134 55 -71 28
-139 55 -150 60 -11 5 -148 60 -305 121 -157 62 -298 118 -315 124 -16 7 -57
23 -90 36 -33 13 -63 26 -67 29 -4 4 131 59 300 123 635 242 756 289 761 293
9 10 5 429 -4 431 -6 2 -32 -8 -60 -21z"/>
<path d="M4085 4124 l0 -216 520 -202 c286 -111 529 -206 540 -210 22 -9 -21
-27 -830 -343 -121 -47 -222 -88 -225 -90 -5 -5 -7 -433 -2 -433 2 0 49 20
105 44 245 106 414 179 442 191 60 27 151 67 183 81 17 8 47 21 65 29 18 8
100 43 183 78 82 35 169 74 194 85 25 11 79 35 120 52 97 41 154 67 210 93
l44 22 1 182 0 182 -25 12 c-30 14 -450 196 -840 364 -157 68 -374 162 -483
209 -109 47 -199 86 -200 86 -1 0 -2 -97 -2 -216z"/>
</g>
</svg>
